<mxfile host="app.diagrams.net" modified="2022-07-06T12:33:08.111Z" agent="5.0 (Windows NT 10.0; Win64; x64) AppleWebKit/537.36 (KHTML, like Gecko) Chrome/103.0.0.0 Safari/537.36" etag="fHIlg1-WQ9I9xZCRMM4F" version="20.0.4" type="github">
  <diagram id="wohqRqslY9D6qwSOjgyv" name="Page-1">
    <mxGraphModel dx="1022" dy="675" grid="1" gridSize="10" guides="1" tooltips="1" connect="1" arrows="1" fold="1" page="1" pageScale="1" pageWidth="827" pageHeight="1169" math="0" shadow="0">
      <root>
        <mxCell id="0" />
        <mxCell id="1" parent="0" />
        <mxCell id="qWP8OIBlVVFz76tAWkAY-6" value="Client" style="swimlane;childLayout=stackLayout;horizontal=1;startSize=30;horizontalStack=0;rounded=1;fontSize=14;fontStyle=0;strokeWidth=2;resizeParent=0;resizeLast=1;shadow=0;dashed=0;align=center;strokeColor=#33001A;" vertex="1" parent="1">
          <mxGeometry x="80" y="110" width="160" height="170" as="geometry" />
        </mxCell>
        <mxCell id="qWP8OIBlVVFz76tAWkAY-7" value="+IDClient&#xa;+N° Registre National&#xa;+Nom&#xa;+Prenom&#xa;+Adresse&#xa;    Rue&#xa;    N°&#xa;    Code Postal&#xa;    Commune&#xa;+" style="align=left;strokeColor=none;fillColor=none;spacingLeft=4;fontSize=12;verticalAlign=top;resizable=0;rotatable=0;part=1;" vertex="1" parent="qWP8OIBlVVFz76tAWkAY-6">
          <mxGeometry y="30" width="160" height="140" as="geometry" />
        </mxCell>
        <mxCell id="qWP8OIBlVVFz76tAWkAY-8" value="Livre" style="swimlane;childLayout=stackLayout;horizontal=1;startSize=30;horizontalStack=0;rounded=1;fontSize=14;fontStyle=0;strokeWidth=2;resizeParent=0;resizeLast=1;shadow=0;dashed=0;align=center;" vertex="1" parent="1">
          <mxGeometry x="580" y="100" width="160" height="120" as="geometry" />
        </mxCell>
        <mxCell id="qWP8OIBlVVFz76tAWkAY-9" value="+IDLivre&#xa;+N° ISBN&#xa;+Titre&#xa;+Auteur&#xa;+Date d&#39;achat" style="align=left;strokeColor=none;fillColor=none;spacingLeft=4;fontSize=12;verticalAlign=top;resizable=0;rotatable=0;part=1;" vertex="1" parent="qWP8OIBlVVFz76tAWkAY-8">
          <mxGeometry y="30" width="160" height="90" as="geometry" />
        </mxCell>
        <mxCell id="qWP8OIBlVVFz76tAWkAY-10" value="Emprunt" style="swimlane;childLayout=stackLayout;horizontal=1;startSize=30;horizontalStack=0;rounded=1;fontSize=14;fontStyle=0;strokeWidth=2;resizeParent=0;resizeLast=1;shadow=0;dashed=0;align=center;" vertex="1" parent="1">
          <mxGeometry x="334" y="210" width="160" height="130" as="geometry" />
        </mxCell>
        <mxCell id="qWP8OIBlVVFz76tAWkAY-11" value="+IDClient&#xa;+IDlivre&#xa;+IDEmprunt&#xa;+Date d&#39;Emprunt&#xa;+Date de retour&#xa;+PlusDe15Jours&#xa;" style="align=left;strokeColor=none;fillColor=none;spacingLeft=4;fontSize=12;verticalAlign=top;resizable=0;rotatable=0;part=1;" vertex="1" parent="qWP8OIBlVVFz76tAWkAY-10">
          <mxGeometry y="30" width="160" height="100" as="geometry" />
        </mxCell>
        <mxCell id="qWP8OIBlVVFz76tAWkAY-12" value="Client Livre" style="swimlane;childLayout=stackLayout;horizontal=1;startSize=30;horizontalStack=0;rounded=1;fontSize=14;fontStyle=0;strokeWidth=2;resizeParent=0;resizeLast=1;shadow=0;dashed=0;align=center;" vertex="1" parent="1">
          <mxGeometry x="334" y="20" width="160" height="120" as="geometry" />
        </mxCell>
        <mxCell id="qWP8OIBlVVFz76tAWkAY-13" value="+IDLivre&#xa;+IDClient&#xa;&#xa;" style="align=left;strokeColor=none;fillColor=none;spacingLeft=4;fontSize=12;verticalAlign=top;resizable=0;rotatable=0;part=1;" vertex="1" parent="qWP8OIBlVVFz76tAWkAY-12">
          <mxGeometry y="30" width="160" height="90" as="geometry" />
        </mxCell>
        <mxCell id="qWP8OIBlVVFz76tAWkAY-20" value="" style="endArrow=none;html=1;rounded=0;exitX=1.031;exitY=0.093;exitDx=0;exitDy=0;exitPerimeter=0;entryX=-0.019;entryY=0.356;entryDx=0;entryDy=0;entryPerimeter=0;" edge="1" parent="1" source="qWP8OIBlVVFz76tAWkAY-7" target="qWP8OIBlVVFz76tAWkAY-13">
          <mxGeometry relative="1" as="geometry">
            <mxPoint x="270" y="250" as="sourcePoint" />
            <mxPoint x="490" y="350" as="targetPoint" />
          </mxGeometry>
        </mxCell>
        <mxCell id="qWP8OIBlVVFz76tAWkAY-21" value="" style="endArrow=none;html=1;rounded=0;exitX=1.006;exitY=0.156;exitDx=0;exitDy=0;exitPerimeter=0;entryX=0;entryY=0.133;entryDx=0;entryDy=0;entryPerimeter=0;" edge="1" parent="1" source="qWP8OIBlVVFz76tAWkAY-13" target="qWP8OIBlVVFz76tAWkAY-9">
          <mxGeometry relative="1" as="geometry">
            <mxPoint x="330" y="350" as="sourcePoint" />
            <mxPoint x="490" y="350" as="targetPoint" />
          </mxGeometry>
        </mxCell>
        <mxCell id="qWP8OIBlVVFz76tAWkAY-22" value="" style="endArrow=none;html=1;rounded=0;exitX=0.013;exitY=0.333;exitDx=0;exitDy=0;exitPerimeter=0;entryX=0.006;entryY=0.122;entryDx=0;entryDy=0;entryPerimeter=0;" edge="1" parent="1" source="qWP8OIBlVVFz76tAWkAY-13" target="qWP8OIBlVVFz76tAWkAY-11">
          <mxGeometry relative="1" as="geometry">
            <mxPoint x="330" y="350" as="sourcePoint" />
            <mxPoint x="490" y="350" as="targetPoint" />
          </mxGeometry>
        </mxCell>
        <mxCell id="qWP8OIBlVVFz76tAWkAY-23" value="" style="endArrow=none;html=1;rounded=0;entryX=0.994;entryY=0.144;entryDx=0;entryDy=0;entryPerimeter=0;exitX=1;exitY=0.25;exitDx=0;exitDy=0;" edge="1" parent="1" source="qWP8OIBlVVFz76tAWkAY-11" target="qWP8OIBlVVFz76tAWkAY-13">
          <mxGeometry relative="1" as="geometry">
            <mxPoint x="500" y="260" as="sourcePoint" />
            <mxPoint x="490" y="350" as="targetPoint" />
          </mxGeometry>
        </mxCell>
      </root>
    </mxGraphModel>
  </diagram>
</mxfile>
